<?xml version="1.0" encoding="UTF-8"?>
<svg version="1.1" xmlns="http://www.w3.org/2000/svg" width="512" height="512">
<path d="M0 0 C0.98758301 0.21430664 1.97516602 0.42861328 2.99267578 0.64941406 C39.34693311 8.83403631 72.84314814 24.86774549 102 48 C102.54398437 48.42684082 103.08796875 48.85368164 103.6484375 49.29345703 C119.10979452 61.51927509 133.63955918 75.86025112 145 92 C145.4851709 92.68916504 145.9703418 93.37833008 146.47021484 94.08837891 C180.04280194 142.2725386 192.1370859 193.93414567 192.16113281 252.17749023 C192.16576867 254.80708464 192.17077474 257.4366762 192.17617798 260.06626892 C192.18965435 267.16899541 192.19576694 274.27171618 192.20018864 281.37445331 C192.20296493 285.81511283 192.20720427 290.25577022 192.21169281 294.6964283 C192.22386318 307.01296953 192.23417223 319.32950907 192.2375679 331.64605618 C192.23778747 332.43133668 192.23800703 333.21661719 192.23823325 334.02569408 C192.23845153 334.81271496 192.23866981 335.59973585 192.2388947 336.41060585 C192.23933815 338.00510117 192.23978471 339.59959648 192.24023438 341.1940918 C192.2404558 341.98499555 192.24067723 342.7758993 192.24090537 343.59076983 C192.24486163 356.43342585 192.26235077 369.27602543 192.2855939 382.11865961 C192.30931259 395.33128035 192.3217697 408.54387271 192.32293582 421.75651509 C192.3238514 429.16441856 192.32957569 436.57224809 192.34775543 443.98013115 C192.36477301 450.93811421 192.3664055 457.89595463 192.35761642 464.85395241 C192.35684485 467.40651195 192.36120457 469.95907899 192.37107468 472.51161957 C192.38375906 475.99610926 192.37793626 479.48009824 192.36749268 482.96458435 C192.37957728 484.47844377 192.37957728 484.47844377 192.39190602 486.02288622 C192.34814927 492.2660267 192.04591183 498.7311356 187.54806638 503.55821127 C182.78459085 507.63765078 179.67028446 508.14655852 173.61790848 508.13422108 C172.84412322 508.13657331 172.07033796 508.13892554 171.27310467 508.14134905 C168.65286082 508.14806188 166.0326663 508.14758014 163.41241455 508.14717102 C161.52580526 508.15046822 159.63919667 508.15419348 157.75258899 508.1583125 C152.5467695 508.16835692 147.34096155 508.1720532 142.13513374 508.17470181 C136.52899813 508.17859763 130.92287171 508.18817643 125.31674194 508.19691467 C111.76756042 508.21669924 98.21837812 508.22674768 84.66918576 508.23564246 C78.29429584 508.24002198 71.91940677 508.24538964 65.54451752 508.25063133 C44.36276537 508.26764537 23.18101388 508.28216564 1.99925613 508.28938007 C0.6289669 508.28985483 -0.74132233 508.29033072 -2.11161156 508.29080774 C-2.79116343 508.29104411 -3.47071531 508.29128049 -4.17085966 508.29152403 C-7.61390645 508.29272525 -11.05695323 508.29394069 -14.5 508.29516602 C-15.18328763 508.29540617 -15.86657525 508.29564632 -16.57056857 508.29589374 C-38.72911813 508.30378834 -60.8876142 508.32722289 -83.0461404 508.35972196 C-106.4640027 508.39400545 -129.88182461 508.41372868 -153.29971623 508.41702431 C-166.06885065 508.41919267 -178.83790644 508.42798889 -191.60701752 508.45348549 C-202.47929871 508.47514399 -213.35148219 508.48326685 -224.22378251 508.47351871 C-229.7738464 508.46895996 -235.32370848 508.47095145 -240.87374496 508.49028015 C-245.95165534 508.50781236 -251.02921519 508.50699537 -256.10712877 508.49138286 C-257.94700628 508.4889916 -259.78690744 508.49340828 -261.62674865 508.50521151 C-264.12311002 508.52023827 -266.61821453 508.51072271 -269.11454391 508.49498463 C-269.83300035 508.50520683 -270.55145679 508.51542904 -271.29168463 508.52596101 C-276.30883016 508.45667476 -279.13511901 507.14322577 -283 504 C-286.78095291 499.09498001 -288.12327029 495.48091592 -288.12863445 489.38380623 C-288.13347112 487.99188598 -288.13347112 487.99188598 -288.1384055 486.57184613 C-288.1368569 485.55572998 -288.1353083 484.53961384 -288.13371277 483.4927063 C-288.13597833 482.41041901 -288.13824388 481.32813173 -288.14057809 480.21304786 C-288.14692631 476.57317351 -288.14608816 472.93333632 -288.14526367 469.29345703 C-288.14825492 466.68820141 -288.15165737 464.08294624 -288.15544128 461.47769165 C-288.16375315 455.12344782 -288.1664965 448.76921326 -288.16705366 442.41496445 C-288.16752924 437.24076186 -288.16958612 432.06656232 -288.17275429 426.89236069 C-288.18156781 412.1969787 -288.1861734 397.50160401 -288.18542381 382.80621935 C-288.18538386 382.01374607 -288.1853439 381.22127278 -288.18530273 380.40478516 C-288.18526185 379.61133323 -288.18522097 378.81788131 -288.18517885 378.00038539 C-288.18477376 365.18590093 -288.19430683 352.37144605 -288.2084411 339.55697013 C-288.22286576 326.37401051 -288.22970773 313.19106523 -288.22884732 300.00809753 C-288.2285171 292.61748818 -288.23118577 285.22690972 -288.24202538 277.83630753 C-288.25121155 271.53268252 -288.2532406 265.22910233 -288.24651595 258.92547347 C-288.24328907 255.71871259 -288.24417604 252.51205353 -288.2518692 249.30529785 C-288.35294947 204.20612778 -280.3988825 162.06128355 -259 122 C-258.64824707 121.33516602 -258.29649414 120.67033203 -257.93408203 119.98535156 C-250.64150438 106.29169338 -241.93491241 93.92189489 -232 82 C-231.55398437 81.46375 -231.10796875 80.9275 -230.6484375 80.375 C-221.77691507 69.7481496 -212.62830606 59.86758315 -201.76953125 51.2109375 C-199.95480999 49.76223196 -198.15944774 48.28886012 -196.38671875 46.7890625 C-166.69670546 21.71749573 -129.88407403 6.36788511 -92 -1 C-91.20271484 -1.16516113 -90.40542969 -1.33032227 -89.58398438 -1.50048828 C-61.096213 -7.22527526 -28.2990204 -6.15542341 0 0 Z " fill="#FD84EA" transform="translate(304,4)"/>
<path d="M0 0 C0.98758301 0.21430664 1.97516602 0.42861328 2.99267578 0.64941406 C39.34693311 8.83403631 72.84314814 24.86774549 102 48 C102.54398437 48.42684082 103.08796875 48.85368164 103.6484375 49.29345703 C119.10979452 61.51927509 133.63955918 75.86025112 145 92 C145.4851709 92.68916504 145.9703418 93.37833008 146.47021484 94.08837891 C180.04280194 142.2725386 192.1370859 193.93414567 192.16113281 252.17749023 C192.16576867 254.80708464 192.17077474 257.4366762 192.17617798 260.06626892 C192.18965435 267.16899541 192.19576694 274.27171618 192.20018864 281.37445331 C192.20296493 285.81511283 192.20720427 290.25577022 192.21169281 294.6964283 C192.22386318 307.01296953 192.23417223 319.32950907 192.2375679 331.64605618 C192.23778747 332.43133668 192.23800703 333.21661719 192.23823325 334.02569408 C192.23845153 334.81271496 192.23866981 335.59973585 192.2388947 336.41060585 C192.23933815 338.00510117 192.23978471 339.59959648 192.24023438 341.1940918 C192.2404558 341.98499555 192.24067723 342.7758993 192.24090537 343.59076983 C192.24486163 356.43342585 192.26235077 369.27602543 192.2855939 382.11865961 C192.30931259 395.33128035 192.3217697 408.54387271 192.32293582 421.75651509 C192.3238514 429.16441856 192.32957569 436.57224809 192.34775543 443.98013115 C192.36477301 450.93811421 192.3664055 457.89595463 192.35761642 464.85395241 C192.35684485 467.40651195 192.36120457 469.95907899 192.37107468 472.51161957 C192.38375906 475.99610926 192.37793626 479.48009824 192.36749268 482.96458435 C192.37957728 484.47844377 192.37957728 484.47844377 192.39190602 486.02288622 C192.34814927 492.2660267 192.04591183 498.7311356 187.54806638 503.55821127 C182.78459085 507.63765078 179.67028446 508.14655852 173.61790848 508.13422108 C172.84412322 508.13657331 172.07033796 508.13892554 171.27310467 508.14134905 C168.65286082 508.14806188 166.0326663 508.14758014 163.41241455 508.14717102 C161.52580526 508.15046822 159.63919667 508.15419348 157.75258899 508.1583125 C152.5467695 508.16835692 147.34096155 508.1720532 142.13513374 508.17470181 C136.52899813 508.17859763 130.92287171 508.18817643 125.31674194 508.19691467 C111.76756042 508.21669924 98.21837812 508.22674768 84.66918576 508.23564246 C78.29429584 508.24002198 71.91940677 508.24538964 65.54451752 508.25063133 C44.36276537 508.26764537 23.18101388 508.28216564 1.99925613 508.28938007 C0.6289669 508.28985483 -0.74132233 508.29033072 -2.11161156 508.29080774 C-2.79116343 508.29104411 -3.47071531 508.29128049 -4.17085966 508.29152403 C-7.61390645 508.29272525 -11.05695323 508.29394069 -14.5 508.29516602 C-15.18328763 508.29540617 -15.86657525 508.29564632 -16.57056857 508.29589374 C-38.72911813 508.30378834 -60.8876142 508.32722289 -83.0461404 508.35972196 C-106.4640027 508.39400545 -129.88182461 508.41372868 -153.29971623 508.41702431 C-166.06885065 508.41919267 -178.83790644 508.42798889 -191.60701752 508.45348549 C-202.47929871 508.47514399 -213.35148219 508.48326685 -224.22378251 508.47351871 C-229.7738464 508.46895996 -235.32370848 508.47095145 -240.87374496 508.49028015 C-245.95165534 508.50781236 -251.02921519 508.50699537 -256.10712877 508.49138286 C-257.94700628 508.4889916 -259.78690744 508.49340828 -261.62674865 508.50521151 C-264.12311002 508.52023827 -266.61821453 508.51072271 -269.11454391 508.49498463 C-269.83300035 508.50520683 -270.55145679 508.51542904 -271.29168463 508.52596101 C-276.30883016 508.45667476 -279.13511901 507.14322577 -283 504 C-286.78095291 499.09498001 -288.12327029 495.48091592 -288.12863445 489.38380623 C-288.13347112 487.99188598 -288.13347112 487.99188598 -288.1384055 486.57184613 C-288.1368569 485.55572998 -288.1353083 484.53961384 -288.13371277 483.4927063 C-288.13597833 482.41041901 -288.13824388 481.32813173 -288.14057809 480.21304786 C-288.14692631 476.57317351 -288.14608816 472.93333632 -288.14526367 469.29345703 C-288.14825492 466.68820141 -288.15165737 464.08294624 -288.15544128 461.47769165 C-288.16375315 455.12344782 -288.1664965 448.76921326 -288.16705366 442.41496445 C-288.16752924 437.24076186 -288.16958612 432.06656232 -288.17275429 426.89236069 C-288.18156781 412.1969787 -288.1861734 397.50160401 -288.18542381 382.80621935 C-288.18538386 382.01374607 -288.1853439 381.22127278 -288.18530273 380.40478516 C-288.18526185 379.61133323 -288.18522097 378.81788131 -288.18517885 378.00038539 C-288.18477376 365.18590093 -288.19430683 352.37144605 -288.2084411 339.55697013 C-288.22286576 326.37401051 -288.22970773 313.19106523 -288.22884732 300.00809753 C-288.2285171 292.61748818 -288.23118577 285.22690972 -288.24202538 277.83630753 C-288.25121155 271.53268252 -288.2532406 265.22910233 -288.24651595 258.92547347 C-288.24328907 255.71871259 -288.24417604 252.51205353 -288.2518692 249.30529785 C-288.35294947 204.20612778 -280.3988825 162.06128355 -259 122 C-258.64824707 121.33516602 -258.29649414 120.67033203 -257.93408203 119.98535156 C-250.64150438 106.29169338 -241.93491241 93.92189489 -232 82 C-231.55398437 81.46375 -231.10796875 80.9275 -230.6484375 80.375 C-221.77691507 69.7481496 -212.62830606 59.86758315 -201.76953125 51.2109375 C-199.95480999 49.76223196 -198.15944774 48.28886012 -196.38671875 46.7890625 C-166.69670546 21.71749573 -129.88407403 6.36788511 -92 -1 C-91.20271484 -1.16516113 -90.40542969 -1.33032227 -89.58398438 -1.50048828 C-61.096213 -7.22527526 -28.2990204 -6.15542341 0 0 Z M67 45 C66.71229736 45.92514404 66.42459473 46.85028809 66.12817383 47.8034668 C63.74091898 55.46741134 61.32857462 63.12280313 58.88671875 70.76953125 C58.08947867 73.27212655 57.29261007 75.77483985 56.49584961 78.27758789 C55.94938648 79.99124741 55.40149666 81.70445253 54.85229492 83.41723633 C54.04728632 85.92925112 53.24773766 88.44294721 52.44921875 90.95703125 C52.07901863 92.10532158 52.07901863 92.10532158 51.70133972 93.27680969 C50.74757407 96.29381388 50 98.81527847 50 102 C49.319375 101.690625 48.63875 101.38125 47.9375 101.0625 C44.56612326 99.84306586 41.57077382 99.35707738 38 99 C37.24976563 98.89945313 36.49953125 98.79890625 35.7265625 98.6953125 C34.95054687 98.63085938 34.17453125 98.56640625 33.375 98.5 C32.66085937 98.4278125 31.94671875 98.355625 31.2109375 98.28125 C26.89332662 99.68485495 24.91711313 104.22016804 22.93798828 108.06103516 C17.9816524 118.68655523 13.91212139 129.73334022 9.89453125 140.73828125 C9.66069921 141.37725719 9.42686718 142.01623314 9.18594933 142.67457199 C3.05054116 159.45149204 -2.77560901 176.33628737 -8.60131836 193.22265625 C-17.70278439 219.59110233 -17.70278439 219.59110233 -22.48828125 231.7421875 C-22.96058418 232.95770798 -22.96058418 232.95770798 -23.44242859 234.19778442 C-24.88189916 237.76890476 -26.16105821 240.40503971 -29 243 C-29.27270705 238.60175526 -29.53859 234.20315221 -29.79956055 229.80419922 C-29.88809636 228.32525938 -29.97813434 226.84640827 -30.07006836 225.36767578 C-32.0638998 193.22132077 -32.23918976 161.02060536 -32.52606201 128.82507324 C-32.57735458 123.07671876 -32.63213787 117.32841993 -32.69187927 111.58014679 C-32.71798282 108.93705493 -32.7390363 106.29395552 -32.7598877 103.65081787 C-32.82232612 96.790209 -32.91225544 89.92353448 -33.26757812 83.07128906 C-33.31144653 82.1741217 -33.35531494 81.27695435 -33.4005127 80.3526001 C-34.19201377 77.24647008 -35.53790696 76.0026976 -38 74 C-45.09920502 71.37066481 -52.50339984 71.57696351 -60 72 C-60.66 72.33 -61.32 72.66 -62 73 C-62 71.35 -62 69.7 -62 68 C-62.33 68 -62.66 68 -63 68 C-63 69.98 -63 71.96 -63 74 C-64.2375 74.0825 -65.475 74.165 -66.75 74.25 C-69.55530307 74.6266838 -70.93811578 74.96091523 -73.375 76.5 C-79.6512742 86.15580646 -78.1429011 100.88532555 -78.11352539 111.88305664 C-78.11324288 113.37204995 -78.11340251 114.86104339 -78.1139679 116.35003662 C-78.11425336 120.36798294 -78.10839735 124.38589906 -78.10139394 128.4038384 C-78.09511847 132.6118703 -78.09455329 136.81990298 -78.09336853 141.02793884 C-78.09026754 148.9856136 -78.08207083 156.94327453 -78.07201904 164.90094322 C-78.06081955 173.96506463 -78.0553378 183.02918672 -78.05032361 192.09331334 C-78.03988713 210.72888338 -78.02231165 229.36444058 -78 248 C-77.42845468 247.99666908 -76.85690935 247.99333817 -76.26804447 247.98990631 C-70.21606951 247.95622666 -64.16412195 247.9338955 -58.11207581 247.91760254 C-55.86574723 247.91014741 -53.61942569 247.89997981 -51.37312317 247.88684082 C-33.07403363 247.78263508 -15.15105018 248.68572572 3 251 C3 251.66 3 252.32 3 253 C1.98502441 252.87882813 0.97004883 252.75765625 -0.07568359 252.6328125 C-51.23545656 246.13732677 -51.23545656 246.13732677 -101 257 C-101 256.01 -101 255.02 -101 254 C-92.09 252.02 -92.09 252.02 -83 250 C-83.86259465 245.68702675 -85.04623841 241.74908519 -86.51171875 237.62890625 C-87.02496663 236.16362932 -87.53780894 234.69821028 -88.05029297 233.23266602 C-88.31791443 232.47011505 -88.58553589 231.70756409 -88.86126709 230.92190552 C-93.54404529 217.54968011 -97.79853568 204.19669741 -101.33789062 190.47216797 C-102.49338547 186.15780925 -103.81523588 181.89453834 -105.125 177.625 C-106.90976605 171.7816237 -108.57125557 165.94060838 -110 160 C-111.68486719 153.04290255 -113.68378765 146.21437566 -115.7890625 139.37353516 C-116.97043831 135.51541834 -118.11318275 131.66851688 -119.0625 127.74609375 C-121.27837227 118.59638784 -123.74375492 109.80078574 -131.5625 103.875 C-137.09825599 100.9331411 -142.93022319 101.00232404 -149 102 C-154.97506598 104.13591439 -160.56722032 106.44633096 -164 112 C-173.36328521 140.08985562 -155.51951928 185.12440843 -146.86767578 212.25097656 C-145.32069167 217.15222617 -143.85643095 222.07862936 -142.375 227 C-140.53066396 233.10920517 -138.61945721 239.16851858 -136.5 245.1875 C-134.06642172 252.38313012 -132.17937861 259.70154034 -130.3125 267.0625 C-130.01472656 268.22225342 -129.71695313 269.38200684 -129.41015625 270.5769043 C-127.39548814 278.68422638 -126.03422479 286.71283146 -125 295 C-131.13223452 290.15375773 -137.15792637 285.20366694 -143.11010742 280.1394043 C-147.41837703 276.47841608 -151.78470618 272.89430317 -156.171875 269.328125 C-159.39739684 266.67286117 -162.57296962 263.96285239 -165.75 261.25 C-170.0257664 257.6042938 -174.33910724 254.14339279 -179 251 C-179.928125 251.763125 -180.85625 252.52625 -181.8125 253.3125 C-182.33457031 253.74175781 -182.85664063 254.17101562 -183.39453125 254.61328125 C-185.00903269 256.00780196 -186.50995992 257.47416317 -188 259 C-187.71125 258.31292969 -187.4225 257.62585938 -187.125 256.91796875 C-186.568125 255.56638672 -186.568125 255.56638672 -186 254.1875 C-185.62875 253.29417969 -185.2575 252.40085937 -184.875 251.48046875 C-183.83366763 248.9668567 -183.83366763 248.9668567 -184 246 C-185.78101889 244.22936057 -185.78101889 244.22936057 -188.1875 242.5 C-192.36533251 239.28401311 -196.43088373 235.98636819 -200.4375 232.5625 C-204.4261124 229.16714348 -208.43672799 225.80621405 -212.5 222.5 C-217.1045358 218.75212202 -221.64019191 214.93016556 -226.1640625 211.0859375 C-229.5805954 208.18755177 -233.02504838 205.328449 -236.5 202.5 C-241.70965702 198.25904934 -246.83826473 193.92778392 -251.95703125 189.578125 C-252.96121094 188.72734375 -253.96539062 187.8765625 -255 187 C-255.54446777 186.52498047 -256.08893555 186.04996094 -256.64990234 185.56054688 C-259.42532124 182.86402321 -259.42532124 182.86402321 -263 182 C-263.63835922 184.33032104 -264.26033562 186.66340351 -264.875 189 C-265.04902344 189.6290625 -265.22304688 190.258125 -265.40234375 190.90625 C-269.62639641 207.17667505 -269.3388743 223.84107937 -269.40471697 240.5221231 C-269.42088363 244.12606316 -269.44761212 247.72992993 -269.4727478 251.33381653 C-269.51430499 257.50645485 -269.54862172 263.6790995 -269.578125 269.85180664 C-269.62070248 278.75091768 -269.68093103 287.64981935 -269.7421875 296.54882812 C-270.13144271 361.70041828 -270 426.8449327 -270 492 C-122.82 492 24.36 492 176 492 C176 436.56 176 381.12 176 324 C171.13329645 324.97334071 167.87672081 326.579069 163.75 329.125 C163.08395752 329.53169922 162.41791504 329.93839844 161.73168945 330.35742188 C156.53170094 333.57763593 151.65694066 337.0268852 147 341 C145.80503906 341.99580078 145.80503906 341.99580078 144.5859375 343.01171875 C132.39571167 353.3805336 132.39571167 353.3805336 125 367 C125.66 369.31 126.32 371.62 127 374 C133.93 374 140.86 374 148 374 C142.39 377.3 136.78 380.6 131 384 C131.53145256 391.33404533 132.87352431 397.96524395 135 405 C133.96939453 403.64455078 133.96939453 403.64455078 132.91796875 402.26171875 C132.00792905 401.07022347 131.09776634 399.87882214 130.1875 398.6875 C129.73568359 398.09259766 129.28386719 397.49769531 128.81835938 396.88476562 C126.68389766 394.09594339 124.58919794 391.38275027 122 389 C113.12879065 397.26590848 113.12879065 397.26590848 108 408 C106.824375 406.453125 106.824375 406.453125 105.625 404.875 C98.96120708 397.14750304 89.34654825 392.75889738 79.27734375 391.71875 C68.06374583 391.34023193 58.7162538 394.96992625 50 402 C47.644139 404.58993693 45.52489774 407.23223187 43.4609375 410.05859375 C42.97882813 410.69925781 42.49671875 411.33992188 42 412 C41.67 412 41.34 412 41 412 C41.92569698 399.32712301 42.92457633 386.66107547 44 374 C44.07261047 373.14315613 44.14522095 372.28631226 44.22003174 371.40350342 C47.47012949 333.45899899 47.47012949 333.45899899 54 319 C54.26780273 318.33790527 54.53560547 317.67581055 54.81152344 316.99365234 C56.3186197 314.46552003 57.85106714 313.56130695 60.3828125 312.07421875 C61.74575439 311.26114258 61.74575439 311.26114258 63.13623047 310.43164062 C64.12252441 309.85607422 65.10881836 309.28050781 66.125 308.6875 C68.21438306 307.44281756 70.30289637 306.19667419 72.390625 304.94921875 C73.47537109 304.30388184 74.56011719 303.65854492 75.67773438 302.99365234 C81.11831458 299.72882445 86.49758117 296.36751906 91.875 293 C92.85355957 292.38987061 93.83211914 291.77974121 94.84033203 291.15112305 C96.69277244 289.99235229 98.53929959 288.82405832 100.37890625 287.64501953 C102.11898684 286.55293095 103.88823832 285.50594167 105.68359375 284.50732422 C108.03070075 283.14139243 110.05029541 281.8907288 112 280 C112.5921074 276.7960411 112.67572617 275.19779042 112.25 272.125 C111.8372216 266.27541663 111.86088178 262.233855 115.5703125 257.4765625 C119.48442578 253.43411764 123.26997155 250.31055879 128.953125 249.6640625 C136.17213533 249.5785292 140.88523367 250.07731971 147 254 C147.66 254.66 148.32 255.32 149 256 C158.38906483 254.77824088 169.78594455 247.88800126 176 241 C179.230157 233.04711127 177.26299867 224.21836786 176 216 C175.80537733 214.11451335 175.6224814 212.22776756 175.453125 210.33984375 C170.79349956 163.64712542 149.50099013 118.77373565 117.5234375 84.7109375 C115.42580917 82.45744824 113.4194089 80.16659836 111.4375 77.8125 C100.44676759 65.25166296 84.94845568 52.64093924 70 45 C69.01 45 68.02 45 67 45 Z " fill="#FEFEFE" transform="translate(304,4)"/>
<path d="M0 0 C0.55355488 4.90698128 1.10480223 9.81421474 1.65405273 14.72167969 C1.84061667 16.38581075 2.02777526 18.04987527 2.21557617 19.71386719 C5.16804144 45.8845193 5.16804144 45.8845193 5.0625 54.75 C5.05347656 55.75546875 5.04445312 56.7609375 5.03515625 57.796875 C5.01775391 58.88742188 5.01775391 58.88742188 5 60 C4.30132812 60.15855469 3.60265625 60.31710938 2.8828125 60.48046875 C1.97273437 60.71378906 1.06265625 60.94710937 0.125 61.1875 C-0.77992188 61.40792969 -1.68484375 61.62835938 -2.6171875 61.85546875 C-5.16137495 62.77955761 -5.16137495 62.77955761 -6.07943821 65.13858223 C-9.35243863 75.31217587 -9.28735598 86.59207727 -9.21118164 97.16455078 C-9.20897182 98.50525803 -9.20767314 99.84596704 -9.2071991 101.18667603 C-9.20429968 104.03971479 -9.19517154 106.89263551 -9.18089485 109.7456398 C-9.15832959 114.27027429 -9.15048992 118.79486721 -9.14439392 123.31954956 C-9.13307812 130.48241277 -9.11240095 137.64521182 -9.08749622 144.80803955 C-9.04300036 157.62545233 -9.0098256 170.44288684 -8.98725218 183.26035678 C-8.97892132 187.74514556 -8.96497742 192.22986944 -8.94627964 196.71462655 C-8.93552875 199.51661352 -8.92901526 202.31860002 -8.92347908 205.12060165 C-8.91843522 207.01091506 -8.9082348 208.90121259 -8.89779663 210.79150391 C-8.88760617 218.57288563 -9.28966589 226.25129831 -10 234 C-9.05452584 233.83789661 -8.10905169 233.67579323 -7.1349268 233.50877762 C-4.63158494 233.102502 -2.35516575 232.86485078 0.16821289 232.83886719 C0.93601578 232.82938553 1.70381866 232.81990387 2.49488831 232.81013489 C3.31255173 232.80575912 4.13021515 232.80138336 4.97265625 232.796875 C5.84111679 232.79004196 6.70957733 232.78320892 7.60435486 232.77616882 C10.42377593 232.75907174 13.24303003 232.75283427 16.0625 232.75 C17.01987061 232.74799591 17.97724121 232.74599182 18.96362305 232.743927 C58.17148772 232.72382924 58.17148772 232.72382924 71 237 C71 237.66 71 238.32 71 239 C63.21093755 239.23736421 55.72114015 238.45770691 48 237.5 C23.51513288 234.69204287 -0.49925879 235.00972138 -24.42578125 241.09765625 C-27.27753147 241.81760631 -30.11054093 242.45787712 -33 243 C-33 242.01 -33 241.02 -33 240 C-31.1291122 239.32187886 -29.25305707 238.6580054 -27.375 238 C-25.80878906 237.443125 -25.80878906 237.443125 -24.2109375 236.875 C-20.96853943 235.9914268 -18.33837995 235.93478134 -15 236 C-15.36967896 234.98184204 -15.36967896 234.98184204 -15.74682617 233.94311523 C-21.92699072 216.90259153 -28.01174355 199.99520844 -32.69555664 182.47729492 C-34.39035849 176.15506999 -36.20973608 169.88371144 -38.125 163.625 C-39.90930832 157.78146138 -41.5712478 151.9406407 -43 146 C-44.6844972 139.04443031 -46.68412744 132.21786237 -48.78686523 125.37792969 C-50.1780259 120.83080157 -51.45714203 116.2847669 -52.59082031 111.66699219 C-54.18234664 105.19873921 -56.16518243 100.43265822 -60 95 C-60 94.34 -60 93.68 -60 93 C-60.5775 92.71125 -61.155 92.4225 -61.75 92.125 C-63.11001342 91.44499329 -64.45516758 90.7321359 -65.765625 89.9609375 C-71.5878436 87.45697635 -78.53722461 88.18283196 -84.4140625 90.1328125 C-90.31166394 92.87354699 -93.67645556 94.68453003 -96 101 C-100.03244123 132.2060092 -87.26223 168.79574946 -77.86767578 198.25097656 C-76.32069167 203.15222617 -74.85643095 208.07862936 -73.375 213 C-71.53066396 219.10920517 -69.61945721 225.16851858 -67.5 231.1875 C-62.16358999 246.87654543 -56.71271112 264.33724515 -57 281 C-60.91726339 279.34814194 -63.89088006 276.69575715 -67.0625 273.9375 C-68.22981968 272.93544131 -69.39779826 271.93414971 -70.56640625 270.93359375 C-71.14664551 270.43585449 -71.72688477 269.93811523 -72.32470703 269.42529297 C-74.6879124 267.41474314 -77.09143529 265.45585357 -79.5 263.5 C-82.9497806 260.69517838 -86.35864546 257.8513064 -89.73754883 254.9621582 C-96.64324263 249.05931899 -103.74858497 243.47119858 -111 238 C-114.57512495 240.81203105 -117.82734428 243.73669697 -121 247 C-117.92482916 236.44191344 -117.92482916 236.44191344 -116 232 C-116.53496094 231.77441406 -117.06992188 231.54882812 -117.62109375 231.31640625 C-120.77070295 229.57351906 -123.35991065 227.28785614 -126.0625 224.9375 C-127.22981968 223.93544131 -128.39779826 222.93414971 -129.56640625 221.93359375 C-130.14664551 221.43585449 -130.72688477 220.93811523 -131.32470703 220.42529297 C-133.6879124 218.41474314 -136.09143529 216.45585357 -138.5 214.5 C-143.1045358 210.75212202 -147.64019191 206.93016556 -152.1640625 203.0859375 C-155.5805954 200.18755177 -159.02504838 197.328449 -162.5 194.5 C-167.09724711 190.75805468 -171.62684974 186.94341652 -176.14208984 183.10351562 C-180.62873459 179.29503777 -185.17813569 175.57135636 -189.7578125 171.875 C-191.6165428 170.32066108 -193.30431391 168.7243027 -195 167 C-187.79752433 139.12218242 -176.18839488 113.18012408 -159 90 C-158.32517578 89.08976074 -158.32517578 89.08976074 -157.63671875 88.16113281 C-143.8507055 69.75660648 -127.66325037 53.45774075 -109 40 C-107.41638672 38.83791016 -107.41638672 38.83791016 -105.80078125 37.65234375 C-76.00601349 16.45830627 -36.97480975 -0.0781139 0 0 Z " fill="#FECC6C" transform="translate(236,18)"/>
<path d="M0 0 C3.4831693 0.5442452 5.87534707 1.2989572 8.75 3.3359375 C9.43425049 3.81748291 10.11850098 4.29902832 10.82348633 4.79516602 C11.54173584 5.31651123 12.25998535 5.83785645 13 6.375 C13.75112061 6.91374756 14.50224121 7.45249512 15.27612305 8.00756836 C22.15594061 13.00170343 28.65636832 18.34646209 35 24 C35.52996582 24.46825195 36.05993164 24.93650391 36.60595703 25.41894531 C42.83296893 30.93693169 48.6943883 36.57431472 54 43 C54.74507813 43.85722656 55.49015625 44.71445313 56.2578125 45.59765625 C77.84559113 70.73828246 93.09773233 100.13632009 102 132 C102.20850586 132.74556152 102.41701172 133.49112305 102.63183594 134.25927734 C105.64088341 145.31359423 107.55105984 156.58821362 108.68212891 167.98339844 C108.90187383 170.06878113 109.15924835 172.15041704 109.44677734 174.22753906 C111.45436408 189.33902989 111.45436408 189.33902989 109 196 C104.33147975 201.41381403 97.82055757 204.33336595 91.29003906 206.95458984 C88.9094222 208.04134906 87.08278683 209.43315848 85 211 C81.06173713 210.86872457 78.15502408 208.1481015 75 206 C69.25314302 204.08438101 62.2203632 203.78353051 56.5078125 205.94140625 C52.53829172 208.33060838 49.58537726 211.12193411 47 215 C46.61714844 215.55429687 46.23429687 216.10859375 45.83984375 216.6796875 C44.82224813 219.49109122 45.26488498 221.57185749 45.69384766 224.48046875 C46.12255204 228.14378636 46.18694051 231.47437314 45 235 C41.45472544 239.46333463 35.79957986 241.85530903 30.8515625 244.45117188 C25.88119446 247.15083068 21.11942375 250.19688444 16.32415771 253.19262695 C13.61409657 254.87907759 10.88804273 256.53928166 8.1640625 258.203125 C3.10493844 261.29755616 -1.88359344 264.48845382 -6.84228516 267.74121094 C-9 269 -9 269 -11 269 C-8.86330526 261.03983068 -5.85627812 253.6074082 -2.5625 246.0625 C-2.02824946 244.82883103 -1.49432058 243.59502271 -0.96069336 242.36108398 C5.94651626 226.42169586 13.04324504 210.56577523 20.17111206 194.72412109 C22.62109895 189.2773775 25.05811174 183.82491696 27.49121094 178.37060547 C28.47077442 176.18227967 29.45550579 173.99625715 30.44628906 171.81298828 C31.74840987 168.94360267 33.0324932 166.0668026 34.3125 163.1875 C34.88133911 161.95314209 34.88133911 161.95314209 35.46166992 160.69384766 C37.73376471 155.51855066 38.49440403 151.6581794 38 146 C34.92902482 139.02051095 28.06739082 135.78700455 21.359375 132.83984375 C17.91383522 131.6133685 16.47006405 131.70723104 13 133 C7.32384607 138.43570942 2.79153677 144.82830524 -1.5 151.375 C-2.09111572 152.26928711 -2.68223145 153.16357422 -3.29125977 154.08496094 C-10.21507201 164.68187593 -16.57877649 175.61303738 -22.97119141 186.53515625 C-26.33644988 192.28501156 -29.72282338 198.02189308 -33.125 203.75 C-33.72820068 204.77899414 -34.33140137 205.80798828 -34.95288086 206.86816406 C-38.2321506 212.38002056 -41.53979709 217.37173147 -46 222 C-46.66 222 -47.32 222 -48 222 C-47.55073387 217.88172711 -47.02130428 213.86461344 -46.1015625 209.82421875 C-45.92351074 209.03974365 -45.74545898 208.25526855 -45.56201172 207.44702148 C-45.37654785 206.63950439 -45.19108398 205.8319873 -45 205 C-44.73533936 203.83416382 -44.73533936 203.83416382 -44.46533203 202.64477539 C-41.63234783 190.24251526 -38.37243416 178.01593693 -34.80908203 165.80566406 C-33.65701972 161.81064291 -32.55053358 157.80336668 -31.44091797 153.79638672 C-28.9204235 144.69654704 -26.30225042 135.64209585 -23.5 126.625 C-19.84813032 114.83755337 -16.79485596 102.91395584 -13.76367188 90.95458984 C-12.91882882 87.68595473 -12.01261785 84.43839446 -11.09057617 81.19091797 C-8.84121758 73.19611963 -8.84121758 73.19611963 -9 65 C-11.14009181 61.48413488 -13.16358517 59.50716297 -17 58 C-16.38010571 52.56977963 -15.1024904 47.65190197 -13.41796875 42.4609375 C-13.16251785 41.65822418 -12.90706696 40.85551086 -12.64387512 40.0284729 C-11.83029127 37.47561655 -11.00914666 34.92527135 -10.1875 32.375 C-9.64726035 30.68636614 -9.10754238 28.99756529 -8.56835938 27.30859375 C-7.77998653 24.83911181 -6.99129785 22.36973941 -6.20040894 19.90106201 C-4.0818001 13.28294612 -2.0212875 6.64855725 0 0 Z " fill="#4BD2EF" transform="translate(371,49)"/>
<path d="M0 0 C0 55.11 0 110.22 0 167 C-60.39 167 -120.78 167 -183 167 C-181.12204742 163.24409483 -180.38139461 162.20782551 -177.1875 159.875 C-176.52105469 159.37742187 -175.85460937 158.87984375 -175.16796875 158.3671875 C-169.81616392 154.99217545 -165.30335138 154.66213731 -159.125 154.6875 C-157.95904297 154.66333008 -157.95904297 154.66333008 -156.76953125 154.63867188 C-156.00253906 154.63802734 -155.23554688 154.63738281 -154.4453125 154.63671875 C-153.41688232 154.63224731 -153.41688232 154.63224731 -152.36767578 154.62768555 C-148.94628901 155.16569491 -146.14569091 156.55776817 -143 158 C-143.01571045 156.48200806 -143.01571045 156.48200806 -143.03173828 154.93334961 C-143.06851236 151.10330888 -143.0911045 147.27328298 -143.10986328 143.44311523 C-143.11979235 141.79953367 -143.13334011 140.15596914 -143.15087891 138.51245117 C-143.35909407 118.46867948 -142.35121789 97.20848242 -129 81 C-121.07841805 73.10509005 -111.17684668 67.94769994 -99.875 67.75 C-89.52461842 67.88745527 -79.4825957 71.56109032 -72.0390625 78.9453125 C-70.63057747 80.57862613 -69.30500954 82.28288218 -68 84 C-67.62230469 82.97777344 -67.24460937 81.95554687 -66.85546875 80.90234375 C-65.06160635 76.71666483 -62.45934308 73.79867282 -59.3125 70.5625 C-58.54583008 69.75135742 -58.54583008 69.75135742 -57.76367188 68.92382812 C-56.51755796 67.60783867 -55.25995799 66.30274095 -54 65 C-50.4740988 68.3777022 -47.51511597 71.83466736 -44.6875 75.8125 C-43.99011719 76.78832031 -43.29273438 77.76414062 -42.57421875 78.76953125 C-42.05472656 79.50558594 -41.53523437 80.24164063 -41 81 C-41.28875 79.98679687 -41.5775 78.97359375 -41.875 77.9296875 C-42.25040295 76.57823687 -42.62538041 75.22666799 -43 73.875 C-43.19078125 73.20984375 -43.3815625 72.5446875 -43.578125 71.859375 C-45.83745336 63.62896455 -45.83745336 63.62896455 -45 60 C-42.41597481 57.73819014 -39.52754422 56.21957258 -36.5 54.625 C-33.695 53.09875 -30.89 51.5725 -28 50 C-34.93 50 -41.86 50 -49 50 C-51 41 -51 41 -49.0703125 37.33984375 C-48.11828363 36.18064968 -47.13464764 35.04686986 -46.125 33.9375 C-45.61050293 33.33389648 -45.09600586 32.73029297 -44.56591797 32.10839844 C-43.07262825 30.37716951 -41.54477617 28.6852582 -40 27 C-39.319375 26.23300781 -38.63875 25.46601563 -37.9375 24.67578125 C-29.98812088 16.22956593 -20.41815908 9.56984486 -10.375 3.875 C-9.68792969 3.48449463 -9.00085938 3.09398926 -8.29296875 2.69165039 C-3.39038535 0 -3.39038535 0 0 0 Z " fill="#00020A" transform="translate(480,328)"/>
<path d="M0 0 C13.2159135 8.810609 21.21558265 18.30480482 25 34 C25.27566968 36.63966722 25.48427667 39.28721063 25.625 41.9375 C25.66367187 42.62134766 25.70234375 43.30519531 25.7421875 44.00976562 C25.83522412 45.67279513 25.91863787 47.33635847 26 49 C26.48726562 48.50371094 26.97453125 48.00742187 27.4765625 47.49609375 C39.97246843 35.52274389 54.99400766 30.47878725 72.01904297 30.65039062 C87.11209568 31.09351139 101.05539642 37.22708608 111.89453125 47.765625 C125.98523968 62.71902987 131.32232807 81.1062895 131.234375 101.26953125 C130.85303531 107.33918803 129.5037645 113.11025571 128 119 C128.46148437 118.62488281 128.92296875 118.24976563 129.3984375 117.86328125 C146.14292878 104.72580489 164.67373386 103.32658064 185.31005859 105.2109375 C202.63068315 107.39410527 218.13134472 114.91168238 229.6015625 128.08203125 C231 130 231 130 231 132 C154.77 132 78.54 132 0 132 C0 88.44 0 44.88 0 0 Z " fill="#00020A" transform="translate(35,363)"/>
<path d="M0 0 C6.18487016 -0.07539695 12.36946011 -0.12917667 18.5546875 -0.16479492 C20.64913607 -0.17967754 22.74355466 -0.19999013 24.83789062 -0.22631836 C43.55585603 -0.45535296 61.12778763 1.18355903 79.1875 6.3125 C80.29134033 6.62026367 81.39518066 6.92802734 82.5324707 7.24511719 C101.84359587 12.7122066 121.32410615 19.58770511 138 31 C134.59480771 43.40079869 130.67018661 55.62936656 126.75 67.875 C126.09355614 69.93092769 125.4373047 71.98691684 124.78125 74.04296875 C123.18971559 79.02935577 121.59581586 84.01498165 120 89 C119.1946582 88.8570752 118.38931641 88.71415039 117.55957031 88.56689453 C115.96000488 88.29014893 115.96000488 88.29014893 114.328125 88.0078125 C112.7488623 87.73155029 112.7488623 87.73155029 111.13769531 87.44970703 C107.02911322 86.86084863 103.14330547 86.86188982 99 87 C91.39018093 99.84156969 86.02283272 113.65040076 80.92578125 127.63671875 C80.69070044 128.27975323 80.45561962 128.9227877 80.21341515 129.58530807 C74.07162114 146.39292988 68.23451406 163.30694469 62.39868164 180.22265625 C53.29517337 206.5975882 53.29517337 206.5975882 48.44921875 218.7421875 C48.12597122 219.55253448 47.80272369 220.36288147 47.46968079 221.19778442 C46.18236031 224.356961 44.89840089 227.15239866 43 230 C42.34 230 41.68 230 41 230 C38.9071721 218.02784967 38.36913215 206.12395187 37.9375 194 C37.8964212 192.91470001 37.85534241 191.82940002 37.8130188 190.71121216 C36.79686617 163.41207323 36.58734892 136.09389943 36.36484337 108.77885342 C36.33453626 105.09931183 36.30134485 101.41979823 36.26811218 97.74028206 C36.24675186 95.19937921 36.2305661 92.65848071 36.21472168 90.11753845 C37.22786328 75.93228454 37.22786328 75.93228454 33.6572113 63.25828552 C26.88299893 58.11476922 16.01784833 59.82485283 8 60 C5.87355731 50.28790948 5.05212979 40.43704313 4.14013672 30.55541992 C3.87396855 27.67634301 3.59963806 24.79812706 3.32421875 21.91992188 C3.15056286 20.07556585 2.97736939 18.23116622 2.8046875 16.38671875 C2.72346649 15.53349533 2.64224548 14.68027191 2.55856323 13.80119324 C2.16660393 9.51620581 1.91020405 5.30889807 2 1 C1.34 0.67 0.68 0.34 0 0 Z " fill="#FCE7D8" transform="translate(234,17)"/>
<path d="M0 0 C0 27.39 0 54.78 0 83 C-6.93 86.465 -6.93 86.465 -14 90 C-27.56962187 98.41157847 -42.08164045 109.85371721 -50 124 C-50.50464527 127.61246071 -50.08225177 129.45261921 -49 133 C-48.33355469 132.9278125 -47.66710937 132.855625 -46.98046875 132.78125 C-40.29489465 132.10801736 -33.7169852 131.88306989 -27 132 C-29.79042625 135.28834617 -33.47328176 137.12735689 -37.1875 139.1875 C-37.84169922 139.55552734 -38.49589844 139.92355469 -39.16992188 140.30273438 C-40.77746961 141.2062466 -42.38840651 142.1037241 -44 143 C-43.51298949 150.59064664 -42.00236413 157.67059167 -40 165 C-44.2379384 161.02693275 -47.70683011 156.62680951 -51.23046875 152.01171875 C-51.81441406 151.34785156 -52.39835937 150.68398438 -53 150 C-55.28382398 149.77245798 -55.28382398 149.77245798 -57.3125 152.16015625 C-58.199375 153.11792969 -59.08625 154.07570313 -60 155.0625 C-61.3303125 156.47208984 -61.3303125 156.47208984 -62.6875 157.91015625 C-65.30291272 161.40473643 -66.0761512 163.79543813 -67 168 C-67.66 167.29875 -68.32 166.5975 -69 165.875 C-77.44900627 157.49719322 -87.10087932 151.96423848 -99.1875 151.75 C-109.43540208 151.90090619 -118.10290781 155.44458964 -126 162 C-128.96429447 165.49449348 -131.47491584 169.18389537 -134 173 C-134.99 173.99 -134.99 173.99 -136 175 C-130.38043449 88.33050287 -130.38043449 88.33050287 -120 73 C-117.92895508 71.38525391 -117.92895508 71.38525391 -115.51953125 69.9765625 C-114.16130249 69.16819946 -114.16130249 69.16819946 -112.77563477 68.34350586 C-111.79780029 67.77639893 -110.81996582 67.20929199 -109.8125 66.625 C-107.73347269 65.39084166 -105.65537836 64.15511056 -103.578125 62.91796875 C-101.96067383 61.95963135 -101.96067383 61.95963135 -100.31054688 60.98193359 C-94.84643644 57.71072058 -89.45516214 54.32477247 -84.0625 50.9375 C-82.58197144 50.0096167 -82.58197144 50.0096167 -81.0715332 49.06298828 C-79.22241871 47.90398379 -77.37787354 46.73764494 -75.53881836 45.56274414 C-73 44 -73 44 -70.54125977 42.73217773 C-68.44565912 41.62114312 -66.70700226 40.64710744 -65 39 C-64.49791457 35.92594144 -64.44207195 34.16100169 -64.8125 31.1875 C-65.17659362 25.37974667 -65.17709464 21.2667461 -61.49609375 16.54296875 C-57.30916409 12.22485592 -53.2172102 8.36597894 -47.046875 7.6640625 C-39.82786467 7.5785292 -35.11476633 8.07731971 -29 12 C-28.01 12.99 -28.01 12.99 -27 14 C-23.52804795 13.63489948 -20.98526612 11.90690885 -18.0859375 10.05859375 C-17.16039062 9.47529297 -16.23484375 8.89199219 -15.28125 8.29101562 C-13.84265625 7.37352539 -13.84265625 7.37352539 -12.375 6.4375 C-10.46870954 5.22382841 -8.5599753 4.01398386 -6.6484375 2.80859375 C-5.80458496 2.27032959 -4.96073242 1.73206543 -4.09130859 1.17749023 C-2 0 -2 0 0 0 Z " fill="#FCE7D7" transform="translate(480,245)"/>
<path d="M0 0 C0.55355488 4.90698128 1.10480223 9.81421474 1.65405273 14.72167969 C1.84061667 16.38581075 2.02777526 18.04987527 2.21557617 19.71386719 C5.16804144 45.8845193 5.16804144 45.8845193 5.0625 54.75 C5.05347656 55.75546875 5.04445312 56.7609375 5.03515625 57.796875 C5.01775391 58.88742188 5.01775391 58.88742188 5 60 C4.30132812 60.15855469 3.60265625 60.31710938 2.8828125 60.48046875 C1.51769531 60.83044922 1.51769531 60.83044922 0.125 61.1875 C-0.77992188 61.40792969 -1.68484375 61.62835938 -2.6171875 61.85546875 C-5.16137495 62.77955761 -5.16137495 62.77955761 -6.07943821 65.13858223 C-9.35243863 75.31217587 -9.28735598 86.59207727 -9.21118164 97.16455078 C-9.20897182 98.50525803 -9.20767314 99.84596704 -9.2071991 101.18667603 C-9.20429968 104.03971479 -9.19517154 106.89263551 -9.18089485 109.7456398 C-9.15832959 114.27027429 -9.15048992 118.79486721 -9.14439392 123.31954956 C-9.13307812 130.48241277 -9.11240095 137.64521182 -9.08749622 144.80803955 C-9.04300036 157.62545233 -9.0098256 170.44288684 -8.98725218 183.26035678 C-8.97892132 187.74514556 -8.96497742 192.22986944 -8.94627964 196.71462655 C-8.93552875 199.51661352 -8.92901526 202.31860002 -8.92347908 205.12060165 C-8.91843522 207.01091506 -8.9082348 208.90121259 -8.89779663 210.79150391 C-8.88760617 218.57288563 -9.28966589 226.25129831 -10 234 C-9.05452584 233.83789661 -8.10905169 233.67579323 -7.1349268 233.50877762 C-4.63158494 233.102502 -2.35516575 232.86485078 0.16821289 232.83886719 C0.93601578 232.82938553 1.70381866 232.81990387 2.49488831 232.81013489 C3.31255173 232.80575912 4.13021515 232.80138336 4.97265625 232.796875 C5.84111679 232.79004196 6.70957733 232.78320892 7.60435486 232.77616882 C10.42377593 232.75907174 13.24303003 232.75283427 16.0625 232.75 C17.01987061 232.74799591 17.97724121 232.74599182 18.96362305 232.743927 C58.17148772 232.72382924 58.17148772 232.72382924 71 237 C71 237.66 71 238.32 71 239 C63.21093755 239.23736421 55.72114015 238.45770691 48 237.5 C23.51513288 234.69204287 -0.49925879 235.00972138 -24.42578125 241.09765625 C-27.27753147 241.81760631 -30.11054093 242.45787712 -33 243 C-33 242.01 -33 241.02 -33 240 C-31.1291122 239.32187886 -29.25305707 238.6580054 -27.375 238 C-26.33085937 237.62875 -25.28671875 237.2575 -24.2109375 236.875 C-20.96853943 235.9914268 -18.33837995 235.93478134 -15 236 C-15.24645264 235.32122803 -15.49290527 234.64245605 -15.74682617 233.94311523 C-21.92699072 216.90259153 -28.01174355 199.99520844 -32.69555664 182.47729492 C-34.39035849 176.15506999 -36.20973608 169.88371144 -38.125 163.625 C-39.90930832 157.78146138 -41.5712478 151.9406407 -43 146 C-44.6844972 139.04443031 -46.68412744 132.21786237 -48.78686523 125.37792969 C-50.1780259 120.83080157 -51.45714203 116.2847669 -52.59082031 111.66699219 C-54.18234664 105.19873921 -56.16518243 100.43265822 -60 95 C-60 94.34 -60 93.68 -60 93 C-60.5775 92.71125 -61.155 92.4225 -61.75 92.125 C-63.11001342 91.44499329 -64.45516758 90.7321359 -65.765625 89.9609375 C-71.5878436 87.45697635 -78.53722461 88.18283196 -84.4140625 90.1328125 C-90.36284936 92.89733389 -93.52349481 94.71656937 -96 101 C-96.55048012 103.2720581 -96.55048012 103.2720581 -96.6875 105.375 C-96.790625 106.57125 -96.89375 107.7675 -97 109 C-99.02818477 106.4028657 -100.70947321 103.843673 -102.20483398 100.90917969 C-102.81578163 99.71708893 -102.81578163 99.71708893 -103.43907166 98.50091553 C-103.87038895 97.64983215 -104.30170624 96.79874878 -104.74609375 95.921875 C-105.19847916 95.03647034 -105.65086456 94.15106567 -106.11695862 93.23883057 C-107.560686 90.41101326 -108.99911955 87.58054014 -110.4375 84.75 C-111.40135345 82.86050399 -112.36554261 80.97117918 -113.33007812 79.08203125 C-118.16976281 69.59555939 -118.16976281 69.59555939 -119.84396362 66.2635498 C-120.61585081 64.75217427 -121.41064022 63.25228261 -122.22756958 61.76477051 C-125.05514437 56.51735614 -125.05514437 56.51735614 -124.78025818 53.93841553 C-123.39808263 50.50464115 -120.23296125 48.57479417 -117.375 46.375 C-116.69405273 45.84503418 -116.01310547 45.31506836 -115.31152344 44.76904297 C-113.22117602 43.1605269 -111.11524694 41.57559167 -109 40 C-108.42475586 39.56880859 -107.84951172 39.13761719 -107.25683594 38.69335938 C-77.50176134 16.75364386 -37.32185433 -0.07884707 0 0 Z " fill="#FE595E" transform="translate(236,18)"/>
<path d="M0 0 C4.14415205 1.70042603 7.24379837 4.6415183 10.5625 7.5625 C11.82206003 8.65723639 13.08248534 9.75097798 14.34375 10.84375 C14.96507813 11.38257813 15.58640625 11.92140625 16.2265625 12.4765625 C19.50760222 15.29507679 22.875862 18.00535952 26.234375 20.73046875 C29.29367645 23.2409972 32.30315725 25.80509251 35.3125 28.375 C39.87128554 32.26343607 44.51819537 36.01189036 49.25 39.6875 C53.91196961 43.30995066 58.39652594 47.04464082 62.76953125 51.015625 C67.9348211 55.61101422 73.24419506 60.16279671 79 64 C78.21609249 68.86022654 76.59408927 73.35634864 75 78 C78.96 73.545 78.96 73.545 83 69 C87.10147453 71.46088472 90.54797876 74.02147134 94.125 77.125 C95.28321028 78.11793905 96.44207427 79.11011605 97.6015625 80.1015625 C98.17551758 80.59301758 98.74947266 81.08447266 99.34082031 81.59082031 C101.6998876 83.59443073 104.09769148 85.54856463 106.5 87.5 C111.09724711 91.24194532 115.62684974 95.05658348 120.14208984 98.89648438 C124.62873459 102.70496223 129.17813569 106.42864364 133.7578125 110.125 C134.49773437 110.74375 135.23765625 111.3625 136 112 C136.57492188 112.45375 137.14984375 112.9075 137.7421875 113.375 C141.2962538 117.96658876 140.21849801 125.74846162 140.25 131.3125 C140.270625 132.21162109 140.29125 133.11074219 140.3125 134.03710938 C140.34794975 140.16548457 139.48310109 145.36583386 137 151 C136 152 136 152 133.30859375 152.2890625 C122.18566382 151.3172835 111.33365753 137.96889691 103.68798828 130.60693359 C101.42459099 128.45222127 99.09265699 126.38042384 96.75 124.3125 C93.16786778 121.11714285 89.74829372 117.78814259 86.375 114.375 C82.07343476 110.03713463 77.71382544 105.88598419 73 102 C72.03320312 101.18208984 72.03320312 101.18208984 71.046875 100.34765625 C62.42113906 93.40292003 53.95563893 92.02586889 43 93 C34.9576355 94.47997863 27.45200014 97.87676178 21.375 103.375 C19.93538117 106.12336322 19.47813714 107.86899358 20.140625 110.9296875 C23.47229775 118.95599004 30.38996313 125.78527181 35.87890625 132.40625 C38.69946733 135.8553339 41.3718525 139.40304518 44 143 C43.31292969 143.45890625 42.62585938 143.9178125 41.91796875 144.390625 C41.01691406 145.00421875 40.11585937 145.6178125 39.1875 146.25 C38.29417969 146.85328125 37.40085938 147.4565625 36.48046875 148.078125 C33.95020992 149.81969003 33.95020992 149.81969003 32.62280273 152.12792969 C31 154 31 154 28.93701172 154.2421875 C28.15084473 154.12101563 27.36467773 153.99984375 26.5546875 153.875 C25.66749023 153.74738281 24.78029297 153.61976563 23.86621094 153.48828125 C22.92036133 153.32714844 21.97451172 153.16601562 21 153 C19.56188965 152.77376953 19.56188965 152.77376953 18.09472656 152.54296875 C15.09918789 152.05704556 12.11231808 151.53400245 9.125 151 C8.10664062 150.82210937 7.08828125 150.64421875 6.0390625 150.4609375 C1.98877797 149.74680839 -2.0138433 149.01497138 -6 148 C-6.07056821 133.23820082 -6.12321939 118.47642442 -6.15543652 103.71448994 C-6.17080345 96.85786053 -6.19169404 90.00133685 -6.22631836 83.14477539 C-6.25979771 76.51169796 -6.27691869 69.87870041 -6.28463173 63.2455349 C-6.29011919 60.73135858 -6.30083231 58.21718734 -6.31719017 55.70305824 C-6.43461026 36.88532688 -5.95841611 18.04428141 0 0 Z " fill="#455CEE" transform="translate(41,186)"/>
<path d="M0 0 C-1.37599563 3.07734984 -2.98604856 5.20053841 -5.3125 7.625 C-14.56001981 17.97066279 -16.71073315 29.46448201 -16 43 C-15.08968001 52.63565123 -9.00229934 64.28316195 -1.79296875 70.6171875 C-1.20128906 71.07351563 -0.60960937 71.52984375 0 72 C0.58136719 72.45632813 1.16273438 72.91265625 1.76171875 73.3828125 C11.22586154 80.00969655 22.65427442 82.1732198 34 81 C40.17953533 79.84225889 46.04743421 77.99292499 52 76 C51.80939536 80.01741899 51.59657539 84.03305627 51.36523438 88.04833984 C51.25322965 90.06679781 51.15762027 92.08614466 51.0625 94.10546875 C50.23882051 108.03938008 47.83314861 120.57449304 38 131 C34.85085613 133.71810163 31.60339066 135.9287597 28 138 C27.31550781 138.39832031 26.63101563 138.79664063 25.92578125 139.20703125 C11.32280491 146.63368779 -7.73354915 146.80629819 -23.109375 142.03515625 C-40.86052878 135.20602066 -56.13836678 120.02237807 -64.0625 102.8125 C-66 98.25252525 -66 98.25252525 -66 97 C-65.16597656 96.85304688 -64.33195313 96.70609375 -63.47265625 96.5546875 C-53.46768262 94.56056904 -45.86391089 91.52141808 -39.97265625 82.90625 C-36.07872823 75.27477661 -35.41739335 66.28477577 -37.875 58.078125 C-41.63056848 49.92458818 -46.59792874 45.7081791 -54.9375 42.625 C-56.61998334 42.0679463 -58.30593728 41.52077877 -60 41 C-58.6526554 29.48787844 -50.33704702 19.38975649 -41.7265625 12.06640625 C-29.41879183 2.80570501 -15.1390879 -0.51806765 0 0 Z " fill="#03040C" transform="translate(275,307)"/>
<path d="M0 0 C0.66 0 1.32 0 2 0 C6.90103417 11.83701134 11.5997127 23.63616042 15 36 C15.18014648 36.65468262 15.36029297 37.30936523 15.54589844 37.98388672 C18.54312875 49.1516861 20.54021008 60.47890559 21.68212891 71.98339844 C21.90187383 74.06878113 22.15924835 76.15041704 22.44677734 78.22753906 C24.45436408 93.33902989 24.45436408 93.33902989 22 100 C17.33147975 105.41381403 10.82055757 108.33336595 4.29003906 110.95458984 C1.9094222 112.04134906 0.08278683 113.43315848 -2 115 C-5.93826287 114.86872457 -8.84497592 112.1481015 -12 110 C-17.74685698 108.08438101 -24.7796368 107.78353051 -30.4921875 109.94140625 C-34.46170828 112.33060838 -37.41462274 115.12193411 -40 119 C-40.38285156 119.55429687 -40.76570313 120.10859375 -41.16015625 120.6796875 C-42.17775187 123.49109122 -41.73511502 125.57185749 -41.30615234 128.48046875 C-40.87744796 132.14378636 -40.81305949 135.47437314 -42 139 C-45.54527456 143.46333463 -51.20042014 145.85530903 -56.1484375 148.45117188 C-61.11880554 151.15083068 -65.88057625 154.19688444 -70.67584229 157.19262695 C-73.38590343 158.87907759 -76.11195727 160.53928166 -78.8359375 162.203125 C-83.89506156 165.29755616 -88.88359344 168.48845382 -93.84228516 171.74121094 C-96 173 -96 173 -98 173 C-95.86330526 165.03983068 -92.85627812 157.6074082 -89.5625 150.0625 C-89.02824946 148.82883103 -88.49432058 147.59502271 -87.96069336 146.36108398 C-81.32579305 131.05008909 -74.51677197 115.8156818 -67.671875 100.59765625 C-67.11057813 99.34888485 -66.54929882 98.10010556 -65.98803711 96.85131836 C-64.88137033 94.38903403 -63.77243517 91.92778735 -62.66235352 89.46704102 C-60.15830583 83.89789634 -57.69381576 78.32064832 -55.35546875 72.6796875 C-54.95352295 71.71401855 -54.55157715 70.74834961 -54.13745117 69.75341797 C-53.40633099 67.98360183 -52.68554257 66.20946288 -51.9777832 64.43017578 C-49.98065364 59.59418015 -47.95015657 56.55987164 -44 53 C-42.0308783 50.83675922 -40.14398784 48.60410879 -38.25 46.375 C-37.72559326 45.76035889 -37.20118652 45.14571777 -36.66088867 44.51245117 C-32.03105265 39.06994243 -27.50049752 33.54979384 -23 28 C-21.500855 26.16596746 -20.00084678 24.33264019 -18.5 22.5 C-16.2022666 19.69210551 -13.90505082 16.88379586 -11.609375 14.07421875 C-10.07878155 12.20152246 -8.54633904 10.33033534 -7.01171875 8.4609375 C-5.7962506 6.97405414 -4.58820527 5.48099837 -3.39453125 3.9765625 C-2.30542874 2.61598283 -1.16002772 1.30063714 0 0 Z " fill="#455CEE" transform="translate(458,145)"/>
<path d="M0 0 C7.03773201 3.96518412 12.1604696 9.78127477 14.5625 17.5625 C14.79296875 21.19140625 14.79296875 21.19140625 14.75 25.125 C14.74355469 26.42566406 14.73710938 27.72632813 14.73046875 29.06640625 C14.5625 32.5625 14.5625 32.5625 13.70703125 34.66796875 C13.31448796 36.91112401 13.31448796 36.91112401 15.84375 39.296875 C16.90446614 40.31494928 17.97807565 41.31971714 19.0625 42.3125 C23.19481807 46.19811251 27.03863655 50.18304721 30.74121094 54.48291016 C33.86446485 58.04911348 37.16454071 61.44680465 40.4375 64.875 C46.45867218 71.23347347 52.14615389 77.67881649 57.5625 84.5625 C58.48491537 85.67229151 59.40952679 86.78026021 60.3359375 87.88671875 C73.5321885 103.83375626 77.80424497 120.19420104 78.5625 140.5625 C77.96824219 140.69785156 77.37398437 140.83320313 76.76171875 140.97265625 C69.42048245 142.8793226 63.76890977 146.27687595 57.5625 150.5625 C56.5725 151.2225 55.5825 151.8825 54.5625 152.5625 C54.87332872 150.81220238 55.18623179 149.06227306 55.5 147.3125 C55.67402344 146.33796875 55.84804687 145.3634375 56.02734375 144.359375 C56.5625 141.5625 56.5625 141.5625 57.1171875 139.60546875 C60.7370288 122.99865295 55.1998937 103.9542227 46.27734375 89.96875 C36.88239201 76.78585644 24.88875907 69.07884063 9.23828125 64.94921875 C-8.04791148 62.45092228 -23.99336336 65.51621737 -38.4375 75.5625 C-40.71132048 77.39726252 -42.88549058 79.27437519 -45.01171875 81.27734375 C-46.4375 82.5625 -46.4375 82.5625 -47.4375 82.5625 C-47.46328125 81.54671875 -47.4890625 80.5309375 -47.515625 79.484375 C-48.04363545 64.96054384 -51.22410301 51.94238476 -61.75 41.203125 C-65.90205543 37.45529828 -65.90205543 37.45529828 -70.54516602 34.3737793 C-72.4375 32.5625 -72.4375 32.5625 -72.89160156 29.55981445 C-72.8706543 28.3605835 -72.84970703 27.16135254 -72.828125 25.92578125 C-72.81523438 24.62705078 -72.80234375 23.32832031 -72.7890625 21.99023438 C-72.75564101 20.61847897 -72.72178123 19.24673419 -72.6875 17.875 C-72.66743376 16.49156188 -72.64918319 15.10809616 -72.6328125 13.72460938 C-72.58559207 10.33654351 -72.51974069 6.94986759 -72.4375 3.5625 C-64.28239702 4.18302256 -56.3396549 5.59090241 -48.3125 7.125 C-46.44851562 7.47594727 -46.44851562 7.47594727 -44.546875 7.83398438 C-41.50968093 8.40637864 -38.47327394 8.98262948 -35.4375 9.5625 C-34.99724487 8.62301514 -34.99724487 8.62301514 -34.5480957 7.66455078 C-33.23964112 5.18800782 -31.87682824 4.08223879 -29.625 2.4375 C-28.95855469 1.93992187 -28.29210937 1.44234375 -27.60546875 0.9296875 C-19.18688893 -4.3793268 -8.90939365 -4.05074447 0 0 Z " fill="#FDCB6B" transform="translate(107.4375,330.4375)"/>
<path d="M0 0 C0 3.63 0 7.26 0 11 C-1.27230469 11.58394531 -1.27230469 11.58394531 -2.5703125 12.1796875 C-20.64136548 20.79818969 -39.9920123 34.1205613 -50 52 C-50.50464527 55.61246071 -50.08225177 57.45261921 -49 61 C-48.00033203 60.89171875 -48.00033203 60.89171875 -46.98046875 60.78125 C-40.29489465 60.10801736 -33.7169852 59.88306989 -27 60 C-29.79042625 63.28834617 -33.47328176 65.12735689 -37.1875 67.1875 C-37.84169922 67.55552734 -38.49589844 67.92355469 -39.16992188 68.30273438 C-40.77746961 69.2062466 -42.38840651 70.1037241 -44 71 C-43.51298949 78.59064664 -42.00236413 85.67059167 -40 93 C-44.2379384 89.02693275 -47.70683011 84.62680951 -51.23046875 80.01171875 C-51.81441406 79.34785156 -52.39835937 78.68398438 -53 78 C-55.28382398 77.77245798 -55.28382398 77.77245798 -57.3125 80.16015625 C-58.199375 81.11792969 -59.08625 82.07570313 -60 83.0625 C-61.3303125 84.47208984 -61.3303125 84.47208984 -62.6875 85.91015625 C-65.30291272 89.40473643 -66.0761512 91.79543813 -67 96 C-67.99 94.948125 -67.99 94.948125 -69 93.875 C-77.44900627 85.49719322 -87.10087932 79.96423848 -99.1875 79.75 C-109.43540208 79.90090619 -118.10290781 83.44458964 -126 90 C-128.96429447 93.49449348 -131.47491584 97.18389537 -134 101 C-134.99 101.99 -134.99 101.99 -136 103 C-134.49614874 80.26976374 -132.99160208 57.59252758 -130 35 C-115.64551628 30.39573164 -101.06905315 26.55496461 -86.47412109 22.79638672 C-76.58904422 20.25015355 -66.78348658 17.50973816 -56.99633789 14.61010742 C-49.10208975 12.28532233 -41.16351291 10.18127231 -33.19189453 8.13989258 C-26.52000948 6.4228548 -19.90368894 4.56535375 -13.31274414 2.56005859 C-8.83994224 1.20583952 -4.68872752 0 0 0 Z " fill="#FECC6C" transform="translate(480,317)"/>
<path d="M0 0 C12.37010958 2.47402192 22.19302846 5.81453091 32 14 C32.63550781 14.52207031 33.27101563 15.04414063 33.92578125 15.58203125 C44.08954745 24.81119826 54.26270798 41.98768094 55.18359375 55.7421875 C55.25072945 58.84622649 55.16564832 61.90001006 55 65 C54.96648437 65.93070312 54.93296875 66.86140625 54.8984375 67.8203125 C54.48980257 71.7315325 54.08745061 74.11631643 50.95703125 76.66015625 C48.34704055 78.0481048 45.80514604 79.07170745 43 80 C42.27296875 80.24363281 41.5459375 80.48726563 40.796875 80.73828125 C28.79180183 84.00632895 16.11882539 82.43890453 5.2421875 76.4921875 C-5.719678 69.28484474 -13.85887327 59.04884631 -16.63671875 46.01171875 C-18.22345671 32.85714919 -16.75770988 20.78742406 -8.5 10 C-7.34928146 8.65287873 -6.18355938 7.31836113 -5 6 C-4.01733965 4.81538941 -3.03773744 3.628229 -2.0625 2.4375 C-1.381875 1.633125 -0.70125 0.82875 0 0 Z " fill="#FEC5D4" transform="translate(275,307)"/>
<path d="M0 0 C7.16963616 4.44136753 12.34324447 9.87774968 14.765625 18.09375 C15.99151178 27.6404789 14.86947153 35.15677317 9.41015625 43.0546875 C5.326134 48.244571 0.36781406 51.84935834 -6.234375 53.09375 C-15.19434721 53.82389907 -23.04924843 54.13994262 -30.234375 48.09375 C-37.38709631 41.45824487 -41.22249817 35.447218 -41.671875 25.65625 C-41.39297074 17.2426382 -37.93109884 10.93240667 -32.19140625 4.890625 C-23.5761374 -3.01960189 -10.86592762 -5.10226166 0 0 Z " fill="#FDCB6C" transform="translate(224.234375,349.90625)"/>
<path d="M0 0 C5.56567465 4.04026752 9.55291858 9.34577071 11.63671875 15.9140625 C12.63397634 25.09932982 12.33312324 33.29113678 6.63671875 40.9140625 C1.16142242 47.20276205 -5.63367938 51.06034302 -13.90625 52.29296875 C-22.07563525 52.68560587 -28.29360295 49.7950998 -34.61328125 44.7890625 C-40.60304421 39.09878769 -43.48336794 33.32880358 -44.00366211 25.0090332 C-44.20906688 15.87650286 -41.8915009 9.76277258 -35.65234375 3.08203125 C-25.41791039 -6.43460248 -12.01246196 -6.76803598 0 0 Z " fill="#FE595E" transform="translate(110.36328125,332.0859375)"/>
<path d="M0 0 C5.31411599 3.53290303 9.15027381 8.33188937 11.109375 14.40234375 C12.03120838 21.5733499 11.27857998 27.43465819 7.109375 33.40234375 C2.90997394 38.3962261 -1.41264259 41.96259885 -7.94921875 42.7890625 C-15.59757596 43.04548141 -21.65857262 42.3567024 -27.37890625 37.01171875 C-28.703125 35.52734375 -28.703125 35.52734375 -30.890625 32.40234375 C-31.48875 31.55671875 -32.086875 30.71109375 -32.703125 29.83984375 C-34.77964497 23.82886488 -35.21883544 17.04459192 -33.01171875 10.9921875 C-29.7756296 5.44918332 -25.05758469 1.28540086 -19.578125 -1.97265625 C-12.6796024 -3.57696383 -6.37033835 -3.17387425 0 0 Z " fill="#465DEE" transform="translate(313.890625,44.59765625)"/>
<path d="M0 0 C6.25327191 2.77105775 10.5711446 8.00239379 14.0546875 13.7578125 C15.67127316 21.30187889 14.99999527 27.3275121 11.2421875 34.1171875 C7.78706717 38.93442258 2.42995569 42.99882007 -3.3828125 44.3828125 C-10.33738158 45.15688628 -15.56526233 44.35228185 -21.3828125 40.3828125 C-26.74315079 35.99708117 -29.87718984 31.12816556 -30.8046875 24.2578125 C-31.10808988 16.97615549 -30.34919055 11.85490529 -25.3828125 6.3828125 C-18.09714726 -0.88421933 -10.05493413 -2.60439277 0 0 Z " fill="#FE84EB" transform="translate(445.3828125,253.6171875)"/>
<path d="M0 0 C0.33 0 0.66 0 1 0 C1.83840998 3.76972318 2.6698549 7.5409489 3.5 11.3125 C3.73847656 12.38435547 3.97695312 13.45621094 4.22265625 14.56054688 C4.44824219 15.58857422 4.67382812 16.61660156 4.90625 17.67578125 C5.11572266 18.62364502 5.32519531 19.57150879 5.54101562 20.5480957 C6 23 6 23 6 26 C6.82242188 25.9278125 7.64484375 25.855625 8.4921875 25.78125 C15.34915248 25.21115591 22.11992439 24.8602242 29 25 C26.22312644 28.24822479 22.60938618 30.12183056 18.9375 32.1875 C18.30005859 32.55552734 17.66261719 32.92355469 17.00585938 33.30273438 C12.25687036 36 12.25687036 36 10 36 C10.23505249 36.83978394 10.23505249 36.83978394 10.47485352 37.6965332 C11.17948863 40.23285138 11.87111709 42.77253893 12.5625 45.3125 C12.9327832 46.63411133 12.9327832 46.63411133 13.31054688 47.98242188 C13.53935547 48.82998047 13.76816406 49.67753906 14.00390625 50.55078125 C14.21861572 51.33106689 14.4333252 52.11135254 14.65454102 52.9152832 C15 55 15 55 14 58 C12.16074213 55.71287089 10.32848506 53.42071465 8.5 51.125 C7.97535156 50.47402344 7.45070312 49.82304687 6.91015625 49.15234375 C6.41386719 48.52714844 5.91757813 47.90195313 5.40625 47.2578125 C4.94541016 46.6817627 4.48457031 46.10571289 4.00976562 45.51220703 C3 44 3 44 3 42 C-0.27655508 43.40526214 -2.15432686 45.02917473 -4.4375 47.75 C-5.035625 48.45640625 -5.63375 49.1628125 -6.25 49.890625 C-6.8275 50.58671875 -7.405 51.2828125 -8 52 C-8.515625 52.61359375 -9.03125 53.2271875 -9.5625 53.859375 C-10.71475603 55.23422594 -11.85842244 56.61626963 -13 58 C-14 56 -14 56 -13.00390625 52.9609375 C-12.52824219 51.77757812 -12.05257812 50.59421875 -11.5625 49.375 C-11.08941406 48.18648437 -10.61632812 46.99796875 -10.12890625 45.7734375 C-9.75636719 44.85820312 -9.38382813 43.94296875 -9 43 C-9.78697266 42.67322266 -9.78697266 42.67322266 -10.58984375 42.33984375 C-13.93667661 40.47928674 -16.67097482 38.05721295 -19.5625 35.5625 C-20.13935547 35.07201172 -20.71621094 34.58152344 -21.31054688 34.07617188 C-23.97673746 31.79745535 -26.51820089 29.48179911 -29 27 C-20.42 27 -11.84 27 -3 27 C-2.3822559 18.86289227 -2.3822559 18.86289227 -1.77368164 10.72509766 C-1.65561157 9.20988525 -1.65561157 9.20988525 -1.53515625 7.6640625 C-1.41732788 6.10872803 -1.41732788 6.10872803 -1.29711914 4.52197266 C-1 2 -1 2 0 0 Z " fill="#FCE5D2" transform="translate(129,207)"/>
<path d="M0 0 C0.66 0.33 1.32 0.66 2 1 C2.68603516 3.10131836 2.68603516 3.10131836 3.2890625 5.83984375 C3.50820313 6.82017578 3.72734375 7.80050781 3.953125 8.81054688 C4.17484375 9.84244141 4.3965625 10.87433594 4.625 11.9375 C4.85445313 12.96552734 5.08390625 13.99355469 5.3203125 15.05273438 C7 22.66631789 7 22.66631789 7 25 C7.66644531 24.9278125 8.33289063 24.855625 9.01953125 24.78125 C15.70510535 24.10801736 22.2830148 23.88306989 29 24 C26.20957375 27.28834617 22.52671824 29.12735689 18.8125 31.1875 C18.15830078 31.55552734 17.50410156 31.92355469 16.83007812 32.30273438 C15.22253039 33.2062466 13.61159349 34.1037241 12 35 C12.48701051 42.59064664 13.99763587 49.67059167 16 57 C11.7620616 53.02693275 8.29316989 48.62680951 4.76953125 44.01171875 C4.18558594 43.34785156 3.60164063 42.68398438 3 42 C0.92792435 41.77636 0.92792435 41.77636 -0.42041016 43.28515625 C-0.95456543 43.87167969 -1.4887207 44.45820313 -2.0390625 45.0625 C-2.61914062 45.69414062 -3.19921875 46.32578125 -3.796875 46.9765625 C-4.40015625 47.64429688 -5.0034375 48.31203125 -5.625 49 C-6.23601562 49.66773438 -6.84703125 50.33546875 -7.4765625 51.0234375 C-8.98925832 52.67794855 -10.49676309 54.33689804 -12 56 C-12.33 55.34 -12.66 54.68 -13 54 C-12.08996308 51.28452006 -11.123355 48.65561951 -10.0625 46 C-7.89079434 41.13775704 -7.89079434 41.13775704 -7 36 C-14.26 33.03 -21.52 30.06 -29 27 C-29 26.67 -29 26.34 -29 26 C-20.09 26 -11.18 26 -2 26 C-1.855625 23.751875 -1.71125 21.50375 -1.5625 19.1875 C-1.14309202 12.78135874 -0.62436632 6.38979145 0 0 Z " fill="#F8E2D1" transform="translate(424,353)"/>
<path d="M0 0 C2.3047478 3.90353681 3.12330078 8.12962342 4.125 12.5 C4.30675781 13.25925781 4.48851562 14.01851562 4.67578125 14.80078125 C5.50987256 18.38172964 6 21.27373579 6 25 C7.07378906 24.855625 8.14757812 24.71125 9.25390625 24.5625 C10.69007356 24.37476571 12.12627324 24.18727891 13.5625 24 C14.26697266 23.90460938 14.97144531 23.80921875 15.69726562 23.7109375 C20.17367855 23.13333583 24.48661238 22.90510617 29 23 C25.6883681 26.71304183 22.0522696 28.88899839 17.75 31.25 C17.1003125 31.61351563 16.450625 31.97703125 15.78125 32.3515625 C14.19081574 33.24033459 12.59585552 34.12099936 11 35 C12.12276571 42.05909078 13.37563401 49.03843148 15 56 C10.12927217 51.43369266 6.10843602 46.25023461 2 41 C-3.59753384 45.54799625 -8.3143947 50.52331848 -13 56 C-14 54 -14 54 -13.47094727 52.02880859 C-13.02319946 50.8505249 -13.02319946 50.8505249 -12.56640625 49.6484375 C-12.24736328 48.79765625 -11.92832031 47.946875 -11.59960938 47.0703125 C-11.25736328 46.18085938 -10.91511719 45.29140625 -10.5625 44.375 C-10.22412109 43.4778125 -9.88574219 42.580625 -9.53710938 41.65625 C-8.69817012 39.43483339 -7.8522225 37.21634729 -7 35 C-7.57935303 34.8146167 -8.15870605 34.6292334 -8.75561523 34.43823242 C-13.31833462 32.9524878 -17.71020357 31.35091732 -22.0625 29.3125 C-23.00222656 28.87550781 -23.94195312 28.43851563 -24.91015625 27.98828125 C-25.59980469 27.66214844 -26.28945313 27.33601563 -27 27 C-27 26.67 -27 26.34 -27 26 C-19.08 26 -11.16 26 -3 26 C-2.87625 23.9375 -2.7525 21.875 -2.625 19.75 C-2.15593872 13.07437427 -1.23985797 6.572451 0 0 Z " fill="#F6E7D8" transform="translate(398,89)"/>
<path d="M0 0 C0.763125 0.309375 1.52625 0.61875 2.3125 0.9375 C6.39340374 2.55088055 9.81969633 3.23374058 14.1875 3.5625 C15.27417969 3.64628906 16.36085937 3.73007812 17.48046875 3.81640625 C18.72763672 3.90728516 18.72763672 3.90728516 20 4 C20 4.33 20 4.66 20 5 C18.35 5.33 16.7 5.66 15 6 C19.60368079 16.4800515 25.11622562 24.73376206 33 33 C33.804375 33.84691406 34.60875 34.69382812 35.4375 35.56640625 C44.39654006 44.27494684 56.39266811 50.46701552 68.9375 51.625 C69.70964844 51.69976562 70.48179687 51.77453125 71.27734375 51.8515625 C71.84582031 51.90054688 72.41429687 51.94953125 73 52 C73 52.33 73 52.66 73 53 C54.25808313 53.82583722 38.13395814 50.74266333 23.8125 37.6875 C13.61853127 28.0602237 3.09512527 17.14914407 0 3 C0 2.01 0 1.02 0 0 Z " fill="#485BE9" transform="translate(195,399)"/>
<path d="M0 0 C0 0.33 0 0.66 0 1 C-1.01578125 1.21914063 -2.0315625 1.43828125 -3.078125 1.6640625 C-19.55946556 5.38688757 -32.44540268 11.48908935 -41.875 26 C-44.90195614 30.81671928 -47.36242214 35.54140714 -49 41 C-53.62 41.33 -58.24 41.66 -63 42 C-59.3235392 27.78435158 -50.22086987 15.6565 -37.74609375 8.00390625 C-25.54941158 1.44904131 -13.74173886 -0.61632384 0 0 Z " fill="#495CEB" transform="translate(264,307)"/>
<path d="M0 0 C3.78171013 2.03630545 7.09528802 4.08475871 9 8 C9.74432493 12.80594985 9.47327727 16.10240518 7.1875 20.4375 C4.91801364 23.09604116 3.27071883 24.76896021 -0.234375 25.40625 C-5.1198025 25.58831562 -8.21972258 25.39379254 -12.0625 22.1875 C-15.14647032 19.2486577 -15.90745779 16.9809474 -16.3125 12.6875 C-15.93790854 8.26732079 -14.83614013 6.37270719 -12 3 C-8.07324125 -0.18385844 -4.98824428 -0.6125914 0 0 Z " fill="#FDE7D5" transform="translate(114,122)"/>
<path d="M0 0 C0.92989746 0.00299103 1.85979492 0.00598206 2.81787109 0.00906372 C41.58934165 0.15478055 41.58934165 0.15478055 54.25 4.375 C54.25 5.035 54.25 5.695 54.25 6.375 C46.46093755 6.61236421 38.97114015 5.83270691 31.25 4.875 C6.76513288 2.06704287 -17.24925879 2.38472138 -41.17578125 8.47265625 C-44.02753147 9.19260631 -46.86054093 9.83287712 -49.75 10.375 C-49.75 9.385 -49.75 8.395 -49.75 7.375 C-33.3406954 1.14642003 -17.37574656 -0.14563599 0 0 Z " fill="#080611" transform="translate(252.75,250.625)"/>
<path d="M0 0 C0.66 0.33 1.32 0.66 2 1 C2.92830843 5.63581186 3.40801131 10.30637542 4 15 C8.95 15.99 13.9 16.98 19 18 C14.36113895 21.09257403 9.48699166 21.17400126 4 22 C3.01 26.62 2.02 31.24 1 36 C0.67 36 0.34 36 0 36 C-1.485 29.07 -1.485 29.07 -3 22 C-6.05989583 21.54427083 -9.11979167 21.08854167 -12.1796875 20.6328125 C-15 20 -15 20 -17 18 C-10.07 16.515 -10.07 16.515 -3 15 C-2.01 10.05 -1.02 5.1 0 0 Z " fill="#EDD9CB" transform="translate(260,405)"/>
<path d="M0 0 C2.56616632 3.84924948 2.55097676 6.4349304 3 11 C6.63 11.66 10.26 12.32 14 13 C11.09907498 14.93395001 10.10325263 15.30131941 6.8125 15.625 C5.554375 15.74875 4.29625 15.8725 3 16 C2.34 19.63 1.68 23.26 1 27 C-1.56616632 23.15075052 -1.55097676 20.5650696 -2 16 C-5.63 15.34 -9.26 14.68 -13 14 C-8.78370866 11.89185433 -6.60209225 11.82299645 -2 12 C-1.93941406 11.30132812 -1.87882813 10.60265625 -1.81640625 9.8828125 C-1.73261719 8.97273438 -1.64882812 8.06265625 -1.5625 7.125 C-1.48128906 6.22007812 -1.40007812 5.31515625 -1.31640625 4.3828125 C-1 2 -1 2 0 0 Z " fill="#E7D4C6" transform="translate(242,321)"/>
<path d="M0 0 C0.76474936 2.24476975 1.1596918 3.53140653 0.38256836 5.81176758 C0.03846924 6.41657959 -0.30562988 7.0213916 -0.66015625 7.64453125 C-1.03906006 8.3185498 -1.41796387 8.99256836 -1.80834961 9.68701172 C-2.22221924 10.38842285 -2.63608887 11.08983398 -3.0625 11.8125 C-3.4757251 12.52937988 -3.8889502 13.24625977 -4.31469727 13.98486328 C-7.65228815 19.66324559 -11.33419321 24.33419321 -16 29 C-15.32242943 18.61058466 -9.91264954 11.37879885 -2.890625 4.03125 C-0.95292287 2.14087073 -0.95292287 2.14087073 0 0 Z " fill="#F5BDCD" transform="translate(275,307)"/>
<path d="M0 0 C0.495 0.7425 0.495 0.7425 1 1.5 C-0.10214844 1.59796875 -1.20429688 1.6959375 -2.33984375 1.796875 C-11.92037373 2.71715911 -21.09640744 4.23140334 -30.42578125 6.59765625 C-33.27753147 7.31760631 -36.11054093 7.95787712 -39 8.5 C-39 7.51 -39 6.52 -39 5.5 C-32.1903565 2.91522202 -25.40851299 1.02810877 -18.25 -0.25 C-17.55398682 -0.37737549 -16.85797363 -0.50475098 -16.14086914 -0.63598633 C-3.65885928 -2.74414446 -3.65885928 -2.74414446 0 0 Z " fill="#180E1F" transform="translate(242,252.5)"/>
<path d="M0 0 C1.8125 1.1875 1.8125 1.1875 3 3 C3.4334014 5.88934264 3.42525784 7.35092224 1.8125 9.8125 C-0.64907776 11.42525784 -2.11065736 11.4334014 -5 11 C-6.8125 9.8125 -6.8125 9.8125 -8 8 C-8.4334014 5.11065736 -8.42525784 3.64907776 -6.8125 1.1875 C-4.35092224 -0.42525784 -2.88934264 -0.4334014 0 0 Z " fill="#E8D5C7" transform="translate(260,373)"/>
<path d="M0 0 C3 0.25 3 0.25 5 2.25 C5.25 5.25 5.25 5.25 5 8.25 C3 10.25 3 10.25 0 10.5 C-3 10.25 -3 10.25 -5 8.25 C-5.25 5.25 -5.25 5.25 -5 2.25 C-3 0.25 -3 0.25 0 0 Z " fill="#F4E0D1" transform="translate(242,401.75)"/>
<path d="M0 0 C6.4188547 1.73624758 12.13784836 3.85180745 18 7 C17.67 8.65 17.34 10.3 17 12 C12.49778408 12 12.49778408 12 9.765625 9.62890625 C9.19199219 9.13712891 8.61835937 8.64535156 8.02734375 8.13867188 C7.44082031 7.61853516 6.85429688 7.09839844 6.25 6.5625 C5.64800781 6.04623047 5.04601562 5.52996094 4.42578125 4.99804688 C2.92392174 3.69541362 1.45849756 2.35100713 0 1 C0 0.67 0 0.34 0 0 Z " fill="#F9CA72" transform="translate(104,237)"/>
<path d="M0 0 C2.625 0.375 2.625 0.375 5 1 C5.625 3.375 5.625 3.375 6 6 C4 8 4 8 1.4375 8.1875 C-1 8 -1 8 -2 7 C-2.1875 4.5625 -2.1875 4.5625 -2 2 C-1.34 1.34 -0.68 0.68 0 0 Z " fill="#F3DFD0" transform="translate(277,398)"/>
<path d="M0 0 C0.66 0.33 1.32 0.66 2 1 C2 2.98 2 4.96 2 7 C3.98 7 5.96 7 8 7 C7.67 7.66 7.34 8.32 7 9 C5.35 9 3.7 9 2 9 C1.67 11.31 1.34 13.62 1 16 C0.67 16 0.34 16 0 16 C-0.33 14.02 -0.66 12.04 -1 10 C-2.98 9.34 -4.96 8.68 -7 8 C-7 7.67 -7 7.34 -7 7 C-5.02 6.67 -3.04 6.34 -1 6 C-0.67 4.02 -0.34 2.04 0 0 Z " fill="#DBC9BC" transform="translate(301,400)"/>
<path d="M0 0 C2.96528179 -0.0562279 5.68850026 0.04316196 8.625 0.3125 C9.42679687 0.37373047 10.22859375 0.43496094 11.0546875 0.49804688 C13.03758124 0.65148508 15.01898519 0.82395693 17 1 C15.68 1.33 14.36 1.66 13 2 C13 2.66 13 3.32 13 4 C7.84828377 4.09038099 3.08086796 3.84681133 -2 3 C-1.34 2.01 -0.68 1.02 0 0 Z " fill="#29172E" transform="translate(271,251)"/>
<path d="M0 0 C0.99 0.99 1.98 1.98 3 3 C-1.95 3.33 -6.9 3.66 -12 4 C-12.33 3.01 -12.66 2.02 -13 1 C-8.55522251 -0.11119437 -4.55553378 -0.29390541 0 0 Z " fill="#221328" transform="translate(240,251)"/>
<path d="M0 0 C1 2 1 2 1 4 C1.66 4.33 2.32 4.66 3 5 C0.03 7.97 -2.94 10.94 -6 14 C-6 10.27792613 -4.82035432 8.53604411 -3 5.3125 C-2.443125 4.31863281 -1.88625 3.32476562 -1.3125 2.30078125 C-0.879375 1.54152344 -0.44625 0.78226562 0 0 Z " fill="#FDDED7" transform="translate(274,313)"/>
<path d="M0 0 C4.29 0 8.58 0 13 0 C13 0.33 13 0.66 13 1 C6.07 2.485 6.07 2.485 -1 4 C-0.67 2.68 -0.34 1.36 0 0 Z " fill="#5C5DE2" transform="translate(251,307)"/>
<path d="M0 0 C0 0.66 0 1.32 0 2 C-3.47325181 3.1577506 -6.36067448 3.06866652 -10 3 C-7.29536552 -0.8183075 -4.37912428 -0.24787496 0 0 Z " fill="#0D0814" transform="translate(228,253)"/>
<path d="M0 0 C0.33 1.32 0.66 2.64 1 4 C-1.64 6.31 -4.28 8.62 -7 11 C-7 7.22089522 -6.00296038 6.53893899 -3.5 3.8125 C-2.8503125 3.09707031 -2.200625 2.38164062 -1.53125 1.64453125 C-1.0259375 1.10183594 -0.520625 0.55914062 0 0 Z " fill="#E5B0C3" transform="translate(275,307)"/>
<path d="M0 0 C0.33 0.66 0.66 1.32 1 2 C-1.31 2.33 -3.62 2.66 -6 3 C-6 2.34 -6 1.68 -6 1 C-6.66 0.67 -7.32 0.34 -8 0 C-4.97878489 -0.97110486 -2.99536737 -1.13617383 0 0 Z " fill="#2B1830" transform="translate(219,255)"/>
</svg>
